<?xml version="1.0" encoding="utf-8"?>
<!-- Generator: Adobe Illustrator 24.0.2, SVG Export Plug-In . SVG Version: 6.00 Build 0)  -->
<svg version="1.0" id="Layer_1" xmlns="http://www.w3.org/2000/svg" xmlns:xlink="http://www.w3.org/1999/xlink" x="0px" y="0px"
	 viewBox="0 0 300 280" enable-background="new 0 0 300 280" xml:space="preserve">
<g>
	<path fill="#CF3A27" d="M185.02,174.41c8.56,0,15.49-6.97,15.49-15.58l0-37.67c0-8.61-6.94-15.58-15.49-15.58h-37.84
		c-8.56,0-15.49,6.98-15.49,15.58l0.01,37.67c0,8.6,6.94,15.58,15.49,15.58H185.02z"/>
	<path fill="#FFFFFF" d="M174.31,142.12c-1.42,4.9,0.91,9.76,5.91,7.79c-1.42,3.53-3.85,8.8-3.85,14.25c0,0-0.08,3.69,2.69,4.6
		c0,0,3.79,0.93,2.99-2.46c0,0-1.07-3.43-0.52-6.39c1.24-6.64,4.19-13.15,4.19-13.15s5.84-12.05,9.11-17.65c0,0,1.48-2.89-1.52-2.89
		c-0.96,0-1.5,0.41-2.19,1.14l-8.11,14.57c-1.24,2.25-2.43,2.98-3.35,2.98c-2.06,0-1.65-3.35-1.33-4.49
		c1.93-7.52,4.17-11.16,4.4-11.68c1.42-3.2-1.52-3.5-1.52-3.5c-1.85-0.47-3.23,2.55-3.23,2.55l-3.26,6.64
		c-1.02,1.87-5.53,9-6.94,10.56c0,0-0.42,0.58-0.76,0.32c-0.18-0.13-0.14-0.8-0.14-0.8c0.18-4.63,2.71-13.29,2.71-13.29
		c0.04-0.28,0.09-0.55,0.09-0.78c0-1.37-0.64-2.24-2.02-2.38c-1.42-0.14-2.15,0.55-3.44,2.11c-2.84,3.53-6.23,8.8-7.84,11.23
		c-0.18,0.27-0.5,0.18-0.5-0.18c0-1.1,3.82-12.83,3.82-12.83s0.45-1.61-0.86-2.16c0,0-1.97-1.24-3.64,1.22l-7.75,10.59
		c-0.61,0.81-0.91,0.51-0.91,0.51c-0.19-0.1-0.07-0.7-0.07-0.7l1.22-6.91c0.98-5.31-0.88-5.59-2.05-5.75
		c-1.16-0.16-2.56,0.72-2.56,0.72c-2.42,1.22-4.25,6.05-4.25,6.05s-0.55,1.72,0.61,2.38c0,0,0.44,0.36,1.29,0.33
		c1.69-0.06,2.04-3.29,3.28-3.29c0.23,0,0.23,0.27,0.23,0.32l-4,16.84c0,0-0.46,1.67,1,2.56c1.87,1.14,3.07-0.76,3.07-0.76l1.4-2.26
		c2.14-3.74,6.01-9.11,6.42-9.11c0.14,0,0.18,0.05,0.18,0.18l-1.37,9.87c0,0-0.3,1.63,1.15,2.17c0,0,1.41,0.49,2.22-0.16
		c0,0,1.01-0.68,2.02-2.34c0.78-1.27,4.68-5.87,7.06-10.08c0.18-0.27,0.32-0.05,0.28,0.18c-0.46,2.2-0.86,8.12-0.91,9.54
		c-0.11,2.93,2.09,3.2,2.18,3.2c0,0,1.81,0.42,3.65-1.74L174.31,142.12z"/>
	<path fill="#194980" d="M57.87,148.64h-4.29v-9.66c0-1.38-0.22-2.4-0.65-3.08c-0.44-0.68-1.17-1.02-2.22-1.02
		c-0.76,0-1.45,0.19-2.08,0.56c-0.63,0.38-1.17,0.91-1.61,1.6v11.59h-4.29V131.1h2.44l1.61,2.36c0.35-0.32,0.87-0.71,1.3-0.99
		c0.43-0.28,0.88-0.52,1.35-0.72c0.47-0.21,0.97-0.37,1.49-0.49c0.52-0.12,1.05-0.18,1.6-0.18c0.63,0,1.19,0.07,1.66,0.2
		c0.48,0.13,0.9,0.33,1.27,0.59c0.37,0.26,0.69,0.57,0.96,0.93c0.27,0.37,0.51,0.78,0.72,1.24c0.34-0.34,0.72-0.68,1.14-1.03
		c0.43-0.35,0.9-0.67,1.41-0.96c0.52-0.29,1.08-0.52,1.69-0.7c0.61-0.18,1.27-0.27,1.99-0.27c0.97,0,1.79,0.2,2.47,0.59
		c0.68,0.39,1.23,0.94,1.66,1.64c0.43,0.7,0.73,1.53,0.93,2.49c0.19,0.96,0.29,2.01,0.29,3.15v9.69h-4.29v-9.66
		c0-1.38-0.22-2.4-0.65-3.08c-0.43-0.68-1.15-1.02-2.16-1.02c-0.76,0-1.45,0.18-2.08,0.53c-0.63,0.35-1.19,0.9-1.67,1.64V148.64z"/>
	<path fill="#194980" d="M82.88,146.71c-0.5,0.54-1.27,1.04-2.15,1.41c-0.88,0.36-1.93,0.54-3.15,0.54c-0.85,0-1.62-0.14-2.3-0.41
		c-0.68-0.27-1.27-0.66-1.76-1.15c-0.49-0.49-0.87-1.08-1.13-1.75c-0.26-0.67-0.39-1.41-0.39-2.21c0-3.27,2.53-5.35,6.58-5.35h4.28
		v-0.97c0-0.6-0.3-1.07-0.91-1.41c-0.6-0.34-1.53-0.51-2.78-0.51c-1.17,0-2.25,0.12-3.24,0.37c-0.99,0.24-1.54,0.45-2.4,0.8
		l-0.53-3.66c0.31-0.14,0.7-0.28,1.15-0.44c0.45-0.15,0.96-0.3,1.51-0.43c0.56-0.13,1.16-0.24,1.81-0.33
		c0.65-0.09,1.34-0.13,2.05-0.13c2.48,0,4.35,0.61,5.59,1.82c1.25,1.21,1.87,2.94,1.87,5.18v10.55h-3.06L82.88,146.71z
		 M82.88,140.66h-3.85c-1.03,0-1.78,0.24-2.26,0.64c-0.47,0.39-0.71,0.95-0.71,1.65c0,0.67,0.2,1.19,0.6,1.56
		c0.4,0.36,1.01,0.55,1.83,0.55c0.5,0,0.97-0.07,1.41-0.2c0.45-0.13,0.86-0.31,1.24-0.53c0.38-0.22,0.71-0.49,1.01-0.8
		c0.29-0.31,0.54-0.64,0.73-0.98V140.66z"/>
	<polygon fill="#194980" points="107.27,130.83 100.28,139.61 108.23,148.64 102.84,148.64 95.48,139.73 95.48,148.64 91.19,148.64 
		91.19,124.56 95.48,124.56 95.48,139.73 102.04,130.83 	"/>
	<path fill="#194980" d="M117.62,144.87c0.76,0,1.44-0.06,2.06-0.18c0.62-0.12,1.18-0.28,1.68-0.47c0.51-0.2,0.96-0.42,1.37-0.68
		c0.41-0.26,0.27-0.14,0.6-0.4l0.83,3.79c-0.76,0.48-1.83,0.91-2.91,1.24c-1.08,0.33-2.3,0.49-3.68,0.49c-1.5,0-2.84-0.21-3.99-0.63
		c-1.16-0.42-2.13-1.01-2.93-1.77c-0.79-0.76-1.4-1.68-1.81-2.75c-0.41-1.07-0.62-2.26-0.62-3.57c0-1.21,0.19-2.34,0.56-3.42
		c0.37-1.07,0.92-2.01,1.64-2.82c0.72-0.81,1.61-1.45,2.67-1.92c1.06-0.47,2.29-0.7,3.68-0.7c1.4,0,2.6,0.22,3.62,0.67
		c1.01,0.45,1.85,1.04,2.51,1.78c0.66,0.74,1.14,1.6,1.46,2.56c0.32,0.96,0.43,1.96,0.43,2.99c0,0.28-0.02,0.6-0.05,0.96
		c-0.03,0.36-0.07,0.66-0.13,0.91h-11.96c0.06,0.61,0.22,1.15,0.47,1.63c0.25,0.48,0.59,0.89,1.02,1.23
		c0.43,0.34,0.93,0.6,1.51,0.78C116.26,144.78,116.91,144.87,117.62,144.87 M116.82,134.86c-0.57,0-1.08,0.07-1.55,0.21
		c-0.46,0.14-0.87,0.34-1.21,0.6c-0.35,0.26-0.63,0.57-0.85,0.94c-0.22,0.37-0.37,0.77-0.46,1.21h7.62c0-0.39-0.07-0.77-0.21-1.13
		c-0.14-0.36-0.36-0.68-0.65-0.94c-0.29-0.27-0.66-0.48-1.11-0.64C117.94,134.94,117.42,134.86,116.82,134.86"/>
	<path fill="#194980" d="M204.73,133.58l5.8-6.9h1.27v4.41h4.95v3.82h-4.95v7.19c0,0.5,0.06,0.92,0.18,1.25
		c0.12,0.33,0.29,0.6,0.5,0.8c0.21,0.2,0.45,0.34,0.72,0.42c0.27,0.08,0.56,0.12,0.87,0.12c0.57,0,1.07-0.05,1.51-0.16
		c0.44-0.11,0.83-0.25,1.16-0.41v3.82c-0.46,0.23-0.95,0.41-1.46,0.53c-0.51,0.12-1.13,0.18-1.87,0.18c-1.04,0-1.94-0.12-2.68-0.37
		c-0.75-0.25-1.36-0.6-1.83-1.07c-0.48-0.47-0.83-1.04-1.05-1.72c-0.23-0.67-0.34-1.43-0.34-2.28v-8.3h-2.78V133.58z"/>
	<path fill="#194980" d="M224.07,134.71c0.58-1.05,1.61-2.06,2.47-2.69c0.86-0.63,1.89-0.94,3.08-0.94c0.41,0,0.75,0.02,1,0.06
		c0.26,0.04,0.45,0.08,0.59,0.11c0,0-0.14,0.99-0.79,4.02c-0.26-0.06-0.58-0.09-0.95-0.09c-0.81,0-1.53,0.14-2.17,0.42
		c-0.64,0.28-1.18,0.68-1.62,1.21c-0.44,0.53-0.78,1.17-1.02,1.93c-0.24,0.76-0.36,1.62-0.36,2.58v7.3h-4.29V131.1h2.75
		L224.07,134.71z"/>
	<path fill="#194980" d="M251.84,131.08c1.29,0,2.41,0.25,3.34,0.74c0.93,0.49,1.7,1.15,2.31,1.97c0.61,0.82,1.06,1.77,1.35,2.85
		c0.29,1.08,0.43,2.2,0.43,3.36c0,1.18-0.15,2.3-0.46,3.34c-0.3,1.04-0.76,1.96-1.38,2.75c-0.62,0.79-1.38,1.41-2.3,1.87
		c-0.91,0.46-1.99,0.69-3.22,0.69c-1.2,0-2.21-0.17-3.04-0.53c-0.83-0.35-1.55-0.86-2.17-1.54l-0.06,0.04v9.1h-4.29V131.1h2.57
		l1.64,2.14c0.62-0.64,1.51-1.25,2.36-1.61C249.79,131.26,250.76,131.08,251.84,131.08 M250.72,134.91c-0.55,0-1.04,0.08-1.48,0.24
		c-0.44,0.16-0.83,0.37-1.17,0.63c-0.34,0.26-0.63,0.55-0.87,0.88c-0.24,0.33-0.44,0.67-0.58,1.01v4.98
		c0.17,0.3,0.39,0.59,0.65,0.86c0.27,0.27,0.57,0.5,0.91,0.71c0.34,0.2,0.71,0.37,1.13,0.49c0.42,0.12,0.86,0.18,1.33,0.18
		c0.72,0,1.35-0.12,1.88-0.36c0.53-0.24,0.97-0.57,1.33-0.99c0.35-0.43,0.61-0.94,0.78-1.53c0.17-0.6,0.25-1.26,0.25-1.98
		c0-0.75-0.1-1.44-0.3-2.07c-0.2-0.63-0.48-1.17-0.85-1.62c-0.37-0.45-0.81-0.81-1.32-1.06
		C251.91,135.04,251.34,134.91,250.72,134.91"/>
	<path fill="#194980" d="M237.78,148.64h-4.29V131.1h4.29V148.64z M235.64,123.88c-1.24,0-2.23,1-2.23,2.24c0,1.24,1,2.24,2.23,2.24
		c1.23,0,2.24-1,2.24-2.24C237.87,124.88,236.87,123.88,235.64,123.88z"/>
</g>
</svg>
